<?xml version="1.0" encoding="utf-8"?>
<!-- Generator: Adobe Illustrator 27.2.0, SVG Export Plug-In . SVG Version: 6.00 Build 0)  -->
<svg version="1.1" id="Layer_1" xmlns="http://www.w3.org/2000/svg" xmlns:xlink="http://www.w3.org/1999/xlink" x="0px" y="0px"
	 viewBox="0 0 181.4 42.9" style="enable-background:new 0 0 181.4 42.9;" xml:space="preserve">
<style type="text/css">
	.st0{fill:#1E4162;}
	.st1{fill:#1F3B57;}
	.st2{fill:#008DC6;}
	.st3{fill:#00375A;}
	.st4{fill:#008BC6;}
</style>
<g>
	<rect x="111.2" y="4.2" class="st0" width="0.5" height="35.3"/>
	<g>
		<path class="st1" d="M127.8,13.6v-2.9l-1.2,2.5H126l-1.2-2.5v2.9h-0.9V9.2h1.1l1.3,2.7l1.3-2.7h1.1v4.4H127.8z"/>
		<path class="st1" d="M129.7,13.6V9.2h1v4.4H129.7z"/>
		<path class="st1" d="M134.7,13.6l-2.1-2.8v2.8h-0.9V9.2h0.9l2.1,2.8V9.2h0.9v4.4H134.7z"/>
		<path class="st1" d="M136.5,13.6V9.2h1v4.4H136.5z"/>
		<path class="st1" d="M141.7,9.6l-0.4,0.8c-0.5-0.3-1-0.4-1.4-0.4c-0.3,0-0.6,0.1-0.6,0.4c0,0.8,2.3,0.4,2.3,1.9
			c0,0.9-0.7,1.3-1.7,1.3c-0.7,0-1.4-0.3-1.9-0.7l0.4-0.8c0.4,0.4,1.1,0.7,1.5,0.7s0.6-0.1,0.6-0.4c0-0.8-2.3-0.3-2.3-1.9
			c0-0.8,0.7-1.3,1.7-1.3C140.7,9.1,141.3,9.3,141.7,9.6z"/>
		<path class="st1" d="M144.3,10v3.5h-1V10H142V9.2h3.7V10H144.3z"/>
		<path class="st1" d="M147.2,10v1h2.1v0.8h-2.1v1h2.4v0.8h-3.4V9.2h3.3V10H147.2z"/>
		<path class="st1" d="M152.4,12.3L152.4,12.3h-1v1.2h-1V9.2h1.9c1.1,0,1.8,0.5,1.8,1.5c0,0.7-0.3,1.2-0.8,1.4l0.9,1.4h-1.1
			L152.4,12.3z M152.3,11.5c0.5,0,0.9-0.2,0.9-0.7s-0.3-0.7-0.9-0.7h-0.9v1.5h0.9V11.5z"/>
		<path class="st1" d="M154.9,13.6V9.2h1v4.4H154.9z"/>
		<path class="st1" d="M161.2,11.4c0,1.3-1,2.2-2.3,2.2s-2.3-1-2.3-2.2c0-1.3,1-2.2,2.3-2.2S161.2,10.1,161.2,11.4z M157.6,11.4
			c0,0.8,0.6,1.4,1.3,1.4s1.3-0.6,1.3-1.4s-0.6-1.4-1.3-1.4C158.2,10,157.6,10.6,157.6,11.4z"/>
		<path class="st1" d="M165.3,9.2c1.4,0,2.3,0.9,2.3,2.2s-1,2.2-2.3,2.2h-1.8V9.2H165.3z M164.4,12.7h0.9c0.7,0,1.3-0.5,1.3-1.3
			S166,10,165.3,10h-0.8L164.4,12.7L164.4,12.7z"/>
		<path class="st1" d="M169.2,10v1h2.1v0.8h-2.1v1h2.4v0.8h-3.4V9.2h3.3V10H169.2z"/>
		<path class="st1" d="M127.2,17.1l-0.4,0.8c-0.5-0.3-1-0.4-1.4-0.4c-0.3,0-0.6,0.1-0.6,0.4c0,0.8,2.3,0.4,2.3,1.9
			c0,0.9-0.7,1.3-1.7,1.3c-0.7,0-1.4-0.3-1.9-0.7l0.4-0.8c0.4,0.4,1.1,0.7,1.5,0.7s0.6-0.1,0.6-0.4c0-0.8-2.3-0.3-2.3-1.9
			c0-0.8,0.7-1.3,1.7-1.3C126.2,16.6,126.8,16.8,127.2,17.1z"/>
		<path class="st1" d="M128.8,20.2l-0.3,0.8h-1l1.9-4.4h1l1.9,4.4h-1.1l-0.3-0.8H128.8z M129.8,17.7l-0.7,1.7h1.4L129.8,17.7z"/>
		<path class="st1" d="M135.5,20.2V21h-2.9v-4.4h1v3.5h1.9V20.2z"/>
		<path class="st1" d="M139.9,19.2c0,1.2-0.8,1.9-2,1.9s-2-0.7-2-1.9v-2.5h1v2.5c0,0.6,0.4,1,1,1s1-0.4,1-1v-2.5h1V19.2z"/>
		<path class="st1" d="M142.7,16.7c1.4,0,2.3,0.9,2.3,2.2c0,1.3-1,2.2-2.3,2.2h-1.8v-4.4C140.9,16.7,142.7,16.7,142.7,16.7z
			 M141.8,20.2h0.9c0.7,0,1.3-0.5,1.3-1.3s-0.6-1.4-1.3-1.4h-0.8L141.8,20.2L141.8,20.2z"/>
		<path class="st1" d="M149,16.7c1.1,0,1.7,0.5,1.7,1.5s-0.6,1.6-1.7,1.6h-0.9V21h-1v-4.4h1.9V16.7z M148.1,19h0.8
			c0.5,0,0.9-0.2,0.9-0.7s-0.3-0.7-0.9-0.7h-0.8V19z"/>
		<path class="st1" d="M155.2,19.2c0,1.2-0.8,1.9-2,1.9s-2-0.7-2-1.9v-2.5h1v2.5c0,0.6,0.4,1,1,1s1-0.4,1-1v-2.5h1V19.2z
			 M153.5,16.3h-0.8l0.7-1l0.9,0.3L153.5,16.3z"/>
		<path class="st1" d="M158.1,16.7c1,0,1.6,0.4,1.6,1.1c0,0.5-0.3,0.8-0.8,1c0.6,0.1,0.9,0.5,0.9,1.1c0,0.7-0.6,1.2-1.6,1.2h-2.1
			v-4.4C156.1,16.7,158.1,16.7,158.1,16.7z M157.1,18.4h1c0.4,0,0.6-0.2,0.6-0.5s-0.2-0.5-0.6-0.5h-1V18.4z M157.1,20.2h1
			c0.5,0,0.7-0.2,0.7-0.5s-0.3-0.5-0.7-0.5h-1V20.2z"/>
		<path class="st1" d="M163.4,20.2V21h-2.9v-4.4h1v3.5h1.9V20.2z"/>
		<path class="st1" d="M164,21v-4.4h1V21H164z"/>
		<path class="st1" d="M169.7,17.4l-0.6,0.7c-0.3-0.3-0.7-0.6-1.1-0.6c-0.7,0-1.3,0.6-1.3,1.3c0,0.8,0.6,1.3,1.3,1.3
			c0.4,0,0.8-0.2,1.1-0.5l0.6,0.6c-0.5,0.5-1.1,0.8-1.8,0.8c-1.3,0-2.3-1-2.3-2.2c0-1.3,1-2.2,2.3-2.2
			C168.6,16.6,169.3,16.9,169.7,17.4z"/>
		<path class="st1" d="M171.1,20.2l-0.3,0.8h-1l1.9-4.4h1l1.9,4.4h-1.1l-0.3-0.8H171.1z M172.1,17.7l-0.7,1.7h1.4L172.1,17.7z"/>
		<path class="st1" d="M126,28.5h-1v-1.4l-1.6-3h1l1.1,2l1.1-2h1l-1.6,3V28.5z"/>
		<path class="st1" d="M130.5,27.7l-0.3,0.8h-1l1.9-4.4h1l1.9,4.4h-1.1l-0.3-0.8H130.5z M131.5,25.2l-0.7,1.7h1.4L131.5,25.2z"/>
		<path class="st1" d="M137.6,24.6l-0.4,0.8c-0.5-0.3-1-0.4-1.4-0.4c-0.3,0-0.6,0.1-0.6,0.4c0,0.8,2.3,0.4,2.3,1.9
			c0,0.9-0.7,1.3-1.7,1.3c-0.7,0-1.4-0.3-1.9-0.7l0.4-0.8c0.4,0.4,1.1,0.7,1.5,0.7s0.6-0.1,0.6-0.4c0-0.8-2.3-0.3-2.3-1.9
			c0-0.8,0.7-1.3,1.7-1.3C136.5,24.1,137.1,24.3,137.6,24.6z"/>
		<path class="st1" d="M138.3,28.5v-4.4h1v4.4H138.3z"/>
		<path class="st1" d="M143.5,24.6l-0.4,0.8c-0.5-0.3-1-0.4-1.4-0.4c-0.3,0-0.6,0.1-0.6,0.4c0,0.8,2.3,0.4,2.3,1.9
			c0,0.9-0.7,1.3-1.7,1.3c-0.7,0-1.4-0.3-1.9-0.7l0.4-0.8c0.4,0.4,1.1,0.7,1.5,0.7s0.6-0.1,0.6-0.4c0-0.8-2.3-0.3-2.3-1.9
			c0-0.8,0.7-1.3,1.7-1.3C142.5,24.1,143.1,24.3,143.5,24.6z"/>
		<path class="st1" d="M146.1,25v3.5h-1V25h-1.3v-0.8h3.7V25H146.1z"/>
		<path class="st1" d="M149,25v0.9h2.1v0.8H149v1h2.4v0.8H148v-4.4h3.3V25H149z"/>
		<path class="st1" d="M155.2,28.5l-2.1-2.8v2.8h-0.9v-4.4h0.9l2.1,2.8v-2.8h0.9v4.4H155.2z"/>
		<path class="st1" d="M160.8,24.9l-0.6,0.7c-0.3-0.3-0.7-0.6-1.1-0.6c-0.7,0-1.3,0.6-1.3,1.3c0,0.8,0.6,1.3,1.3,1.3
			c0.4,0,0.8-0.2,1.1-0.5l0.6,0.6c-0.5,0.5-1.1,0.8-1.8,0.8c-1.3,0-2.3-1-2.3-2.2c0-1.3,1-2.2,2.3-2.2
			C159.7,24.1,160.4,24.4,160.8,24.9z"/>
		<path class="st1" d="M161.4,28.5v-4.4h1v4.4H161.4z"/>
		<path class="st1" d="M164.2,27.7l-0.3,0.8h-1l1.9-4.4h1l1.9,4.4h-1.1l-0.3-0.8H164.2z M165.2,25.2l-0.7,1.7h1.4L165.2,25.2z"/>
		<path class="st1" d="M127.2,32.1l-0.4,0.8c-0.5-0.3-1-0.4-1.4-0.4c-0.3,0-0.6,0.1-0.6,0.4c0,0.8,2.3,0.4,2.3,1.9
			c0,0.9-0.7,1.3-1.7,1.3c-0.7,0-1.4-0.3-1.9-0.7l0.4-0.8c0.4,0.4,1.1,0.7,1.5,0.7s0.6-0.1,0.6-0.4c0-0.8-2.3-0.3-2.3-1.9
			c0-0.8,0.7-1.3,1.7-1.3C126.2,31.6,126.8,31.8,127.2,32.1z"/>
		<path class="st1" d="M132.3,33.8c0,1.3-1,2.2-2.3,2.2s-2.3-1-2.3-2.2c0-1.3,1-2.2,2.3-2.2C131.3,31.6,132.3,32.6,132.3,33.8z
			 M128.6,33.8c0,0.8,0.6,1.4,1.3,1.4s1.3-0.6,1.3-1.4c0-0.8-0.6-1.4-1.3-1.4C129.2,32.5,128.6,33.1,128.6,33.8z"/>
		<path class="st1" d="M136.6,32.4l-0.6,0.7c-0.3-0.3-0.7-0.6-1.1-0.6c-0.7,0-1.3,0.6-1.3,1.3c0,0.8,0.6,1.3,1.3,1.3
			c0.4,0,0.8-0.2,1.1-0.5l0.6,0.6c-0.5,0.5-1.1,0.8-1.8,0.8c-1.3,0-2.3-1-2.3-2.2c0-1.3,1-2.2,2.3-2.2
			C135.5,31.6,136.2,31.9,136.6,32.4z"/>
		<path class="st1" d="M137.2,36v-4.4h1V36H137.2z"/>
		<path class="st1" d="M140,35.2l-0.3,0.8h-1l1.9-4.4h1l1.9,4.4h-1.1l-0.3-0.8H140z M141,32.7l-0.7,1.7h1.4L141,32.7z"/>
		<path class="st1" d="M146.7,35.2V36h-2.9v-4.4h1v3.5h1.9V35.2z"/>
	</g>
	<g id="XMLID_125_">
		<polygon id="XMLID_201_" class="st2" points="12,7.8 4,12 4,42.2 12,36.9 		"/>
		<polygon id="XMLID_180_" class="st2" points="27.7,0.7 18.2,7.4 18.2,42.2 27.7,37.5 		"/>
		<g id="XMLID_264_">
			<path id="XMLID_179_" class="st3" d="M42.6,16.1H44v2.5c-0.7,0.5-1.7,0.8-2.5,0.8c-1.9,0-3.3-1.4-3.3-3.3c0-1.9,1.4-3.2,3.4-3.2
				c0.9,0,1.9,0.4,2.5,0.9l-0.9,1.2c-0.4-0.4-1.1-0.7-1.6-0.7c-1,0-1.7,0.8-1.7,1.8c0,1,0.8,1.8,1.7,1.8c0.3,0,0.7-0.1,1.1-0.3V16.1
				z"/>
			<path id="XMLID_270_" class="st3" d="M46.3,16.2c0,1,0.8,1.8,1.7,1.8c0.9,0,1.7-0.8,1.7-1.8c0-1-0.7-1.8-1.7-1.8
				S46.3,15.2,46.3,16.2 M51.2,16.2c0,1.9-1.4,3.3-3.3,3.3c-1.9,0-3.3-1.4-3.3-3.3c0-1.9,1.4-3.2,3.3-3.2
				C49.8,13,51.2,14.3,51.2,16.2"/>
			<path id="XMLID_266_" class="st3" d="M55.8,17.4c0-0.4-0.3-0.7-0.9-0.6h-1.2v1.3h1.2C55.4,18.1,55.8,17.8,55.8,17.4 M55.6,14.9
				c0-0.4-0.3-0.6-0.7-0.6h-1.2v1.2h1.2C55.3,15.5,55.6,15.3,55.6,14.9 M57.2,14.6c0,0.7-0.4,1.2-1.1,1.4c0.8,0.2,1.3,0.8,1.3,1.6
				c0,1.1-0.9,1.8-2.4,1.8h-3V13h2.9C56.3,13,57.2,13.6,57.2,14.6"/>
		</g>
		<rect id="XMLID_172_" x="58.3" y="13" class="st3" width="1.6" height="6.4"/>
		<polygon id="XMLID_171_" class="st3" points="65.9,13 65.9,14.3 62.7,14.3 62.7,15.5 65.6,15.5 65.6,16.8 62.7,16.8 62.7,18 
			66,18 66,19.4 61.1,19.4 61.1,13 		"/>
		<g id="XMLID_257_">
			<path id="XMLID_259_" class="st3" d="M68.6,16.3h1.2c0.6,0,1-0.3,1-1c0-0.6-0.4-1-1-1h-1.2V16.3z M70.6,19.4l-0.9-1.8h0h-1.2v1.8
				H67V13h2.8c1.6,0,2.5,0.8,2.5,2.2c0,1-0.4,1.7-1.1,2.1l1.3,2.1H70.6z"/>
		</g>
		<polygon id="XMLID_167_" class="st3" points="74.7,13 77.5,16.8 77.5,13 79,13 79,19.4 77.6,19.4 74.8,15.6 74.8,19.4 73.3,19.4 
			73.3,13 		"/>
		<g id="XMLID_243_">
			<path id="XMLID_253_" class="st3" d="M81.4,16.2c0,1,0.8,1.8,1.7,1.8c0.9,0,1.7-0.8,1.7-1.8c0-1-0.7-1.8-1.7-1.8
				C82.2,14.4,81.4,15.2,81.4,16.2 M86.4,16.2c0,1.9-1.4,3.3-3.3,3.3c-1.9,0-3.3-1.4-3.3-3.3c0-1.9,1.4-3.2,3.3-3.2
				C85,13,86.4,14.3,86.4,16.2"/>
			<path id="XMLID_250_" class="st3" d="M92.4,16.3c0-0.1,0-0.2,0-0.2c0-0.1,0-0.1,0-0.2c0-0.1,0-0.1-0.1-0.2c0-0.1-0.1-0.1-0.2-0.1
				c-0.1,0-0.1-0.1-0.3-0.1c-0.2,0-0.4,0.1-0.6,0.2c-0.2,0.1-0.4,0.3-0.5,0.4c-0.2,0.2-0.3,0.4-0.4,0.6s-0.2,0.5-0.3,0.7
				c-0.1,0.2-0.2,0.5-0.2,0.7c-0.1,0.2-0.1,0.4-0.1,0.6c0,0.2,0,0.3,0.1,0.5c0.1,0.1,0.2,0.2,0.4,0.2c0.2,0,0.3-0.1,0.5-0.2
				c0.2-0.1,0.3-0.2,0.5-0.4c0.1-0.2,0.3-0.3,0.4-0.5c0.1-0.2,0.2-0.3,0.2-0.4l0.5-1.3C92.4,16.5,92.4,16.3,92.4,16.3 M92.2,18.7
				c0,0.1-0.1,0.3-0.1,0.4c0,0.2,0.1,0.2,0.2,0.2c0.1,0,0.2,0,0.3-0.1c0.1-0.1,0.2-0.1,0.2-0.2c0.1-0.1,0.1-0.2,0.2-0.3
				c0-0.1,0.1-0.1,0.1-0.2l0.1,0.1c0,0.1-0.1,0.2-0.1,0.3c-0.1,0.1-0.1,0.2-0.2,0.3c-0.1,0.1-0.2,0.2-0.3,0.2
				c-0.1,0.1-0.3,0.1-0.4,0.1c-0.4,0-0.6-0.2-0.6-0.5c0,0,0-0.1,0-0.2c0-0.1,0-0.2,0.1-0.3h0c-0.1,0.1-0.2,0.2-0.3,0.3
				c-0.1,0.1-0.2,0.2-0.4,0.3c-0.1,0.1-0.3,0.2-0.4,0.3c-0.2,0.1-0.3,0.1-0.5,0.1c-0.1,0-0.2,0-0.4-0.1c-0.1,0-0.2-0.1-0.3-0.2
				s-0.2-0.2-0.2-0.4c0-0.1-0.1-0.3-0.1-0.5c0-0.2,0-0.5,0.1-0.7c0.1-0.2,0.2-0.5,0.4-0.7c0.1-0.2,0.3-0.4,0.5-0.6s0.4-0.4,0.6-0.5
				c0.2-0.1,0.4-0.2,0.6-0.3s0.4-0.1,0.5-0.1c0.2,0,0.3,0.1,0.4,0.2c0.1,0.1,0.2,0.2,0.2,0.4h0l1.1-3.3h-0.8l0-0.1h1.4l-2,5.8
				C92.3,18.4,92.3,18.5,92.2,18.7"/>
			<path id="XMLID_247_" class="st3" d="M96.7,15.6c-0.1-0.1-0.2-0.1-0.3-0.1c-0.2,0-0.4,0.1-0.5,0.2c-0.2,0.1-0.3,0.2-0.4,0.4
				c-0.1,0.2-0.3,0.3-0.3,0.5c-0.1,0.2-0.2,0.4-0.2,0.5c0.1,0,0.3,0,0.4,0c0.2,0,0.4,0,0.6-0.1c0.2-0.1,0.3-0.2,0.5-0.3
				c0.1-0.1,0.3-0.2,0.3-0.4c0.1-0.1,0.1-0.3,0.1-0.5C96.8,15.8,96.8,15.7,96.7,15.6 M96.6,18.7c-0.1,0.1-0.2,0.2-0.3,0.3
				c-0.1,0.1-0.3,0.2-0.4,0.3c-0.2,0.1-0.4,0.1-0.6,0.1s-0.5,0-0.6-0.1c-0.2-0.1-0.3-0.2-0.4-0.3c-0.1-0.1-0.2-0.3-0.2-0.4
				c0-0.2-0.1-0.3-0.1-0.5c0-0.3,0.1-0.6,0.2-0.9c0.1-0.3,0.3-0.6,0.6-0.9c0.2-0.3,0.5-0.5,0.8-0.7c0.3-0.2,0.6-0.3,0.9-0.3
				c0.1,0,0.2,0,0.3,0c0.1,0,0.2,0.1,0.3,0.1c0.1,0.1,0.2,0.1,0.2,0.2c0.1,0.1,0.1,0.2,0.1,0.3c0,0.2,0,0.3-0.1,0.4
				c-0.1,0.1-0.2,0.2-0.3,0.3c-0.1,0.1-0.3,0.2-0.4,0.2c-0.2,0.1-0.3,0.1-0.5,0.1c-0.2,0-0.3,0.1-0.4,0.1c-0.1,0-0.2,0-0.3,0
				c-0.1,0-0.2,0-0.3,0c-0.1,0-0.2,0-0.2,0c-0.1,0.2-0.1,0.4-0.2,0.6c0,0.2-0.1,0.4-0.1,0.6c0,0.3,0.1,0.6,0.2,0.7
				c0.2,0.2,0.4,0.2,0.6,0.2c0.2,0,0.4,0,0.5-0.1c0.1-0.1,0.3-0.2,0.4-0.3c0.1-0.1,0.2-0.2,0.3-0.3c0.1-0.1,0.1-0.2,0.2-0.2l0.1,0.1
				C96.8,18.5,96.7,18.6,96.6,18.7"/>
			<path id="XMLID_160_" class="st3" d="M39.6,25h1.7v3c-0.4,0.3-0.9,0.5-1.4,0.7c-0.5,0.2-1,0.2-1.6,0.2c-0.7,0-1.4-0.2-2-0.5
				c-0.6-0.3-1-0.8-1.4-1.3c-0.3-0.6-0.5-1.2-0.5-1.9c0-0.7,0.2-1.4,0.5-1.9c0.3-0.6,0.8-1,1.4-1.3c0.6-0.3,1.3-0.5,2-0.5
				c0.7,0,1.2,0.1,1.8,0.3c0.5,0.2,0.9,0.6,1.3,1l-1.3,1.2c-0.5-0.5-1-0.8-1.7-0.8c-0.6,0-1.1,0.2-1.4,0.6c-0.4,0.4-0.5,0.9-0.5,1.5
				c0,0.4,0.1,0.8,0.2,1.1c0.2,0.3,0.4,0.6,0.7,0.7c0.3,0.2,0.6,0.3,1,0.3c0.4,0,0.7-0.1,1.1-0.2V25z"/>
			<path id="XMLID_159_" class="st3" d="M43.4,28c-0.6-0.6-0.9-1.4-0.9-2.5v-4h2v4c0,1.2,0.4,1.7,1.3,1.7c0.9,0,1.3-0.6,1.3-1.7v-4
				h1.9v4c0,1.1-0.3,1.9-0.9,2.5c-0.6,0.6-1.4,0.9-2.4,0.9C44.8,28.9,44,28.6,43.4,28"/>
		</g>
		<path id="XMLID_240_" class="st3" d="M54.3,25.8l-0.9-2.3l-0.9,2.3H54.3z M54.9,27.3H52l-0.5,1.4h-2l3.1-7.2h1.9l3.1,7.2h-2.1
			L54.9,27.3z"/>
		<polygon id="XMLID_155_" class="st3" points="59.2,23.1 57.1,23.1 57.1,21.5 63.3,21.5 63.3,23.1 61.2,23.1 61.2,28.7 59.2,28.7 
					"/>
		<polygon id="XMLID_154_" class="st3" points="69.6,27.2 69.6,28.7 64,28.7 64,21.5 69.5,21.5 69.5,23.1 66,23.1 66,24.3 
			69.1,24.3 69.1,25.8 66,25.8 66,27.2 		"/>
		<polygon id="XMLID_153_" class="st3" points="77,28.7 77,24.9 75.2,28 74.3,28 72.6,25 72.6,28.7 70.7,28.7 70.7,21.5 72.4,21.5 
			74.8,25.7 77.2,21.5 78.8,21.5 78.8,28.7 		"/>
		<path id="XMLID_234_" class="st3" d="M84.3,25.8l-0.9-2.3l-0.9,2.3H84.3z M84.9,27.3h-2.9l-0.5,1.4h-2l3.1-7.2h1.9l3.1,7.2h-2
			L84.9,27.3z"/>
		<polygon id="XMLID_150_" class="st3" points="88,21.5 90,21.5 90,27.1 93.3,27.1 93.3,28.7 88,28.7 		"/>
		<path id="XMLID_230_" class="st3" d="M97.4,23.5l0.9,2.3h-1.8L97.4,23.5z M96.4,21.5l-3.1,7.2h2l0.5-1.4h2.9l0.5,1.4h2.1l-3.1-7.2
			H96.4z"/>
		<g id="XMLID_221_">
			<path id="XMLID_227_" class="st4" d="M35.8,33.7c0.2,0,0.4-0.1,0.5-0.2c0.1-0.1,0.2-0.3,0.2-0.5c0-0.2-0.1-0.3-0.2-0.5
				c-0.1-0.1-0.3-0.2-0.5-0.2h-0.4v1.2H35.8z M34.8,31.9h1.1c0.2,0,0.5,0,0.7,0.1c0.2,0.1,0.3,0.2,0.4,0.4c0.1,0.2,0.2,0.4,0.2,0.6
				c0,0.2-0.1,0.4-0.2,0.6c-0.1,0.2-0.3,0.3-0.4,0.4c-0.2,0.1-0.4,0.1-0.7,0.1h-1.1V31.9z"/>
			<path id="XMLID_224_" class="st4" d="M39.4,32.5c-0.1-0.1-0.2-0.1-0.3-0.1h-0.4v0.7h0.4c0.1,0,0.2,0,0.3-0.1
				c0.1-0.1,0.1-0.1,0.1-0.2C39.5,32.6,39.4,32.6,39.4,32.5 M39.1,33.6h-0.4v0.6h-0.6v-2.3h1c0.2,0,0.4,0,0.5,0.1
				c0.2,0.1,0.3,0.2,0.4,0.3c0.1,0.1,0.1,0.3,0.1,0.4c0,0.2,0,0.3-0.1,0.4c-0.1,0.1-0.2,0.2-0.3,0.3l0.5,0.7h-0.7L39.1,33.6z"/>
			<path id="XMLID_143_" class="st4" d="M41.1,34.1C41,34,41,33.9,41,33.8c0-0.1,0-0.2,0.1-0.3s0.2-0.1,0.3-0.1c0.1,0,0.2,0,0.3,0.1
				c0.1,0.1,0.1,0.2,0.1,0.3c0,0.1,0,0.2-0.1,0.3c-0.1,0.1-0.2,0.1-0.3,0.1C41.3,34.2,41.2,34.2,41.1,34.1"/>
		</g>
		<path id="XMLID_218_" class="st4" d="M45.6,33.3l-0.3-0.7L45,33.3H45.6z M45.8,33.7h-1l-0.2,0.4H44l1-2.3h0.6l1,2.3H46L45.8,33.7z
			"/>
		<polygon id="XMLID_139_" class="st4" points="47.5,31.9 48.1,31.9 48.1,33.7 49.2,33.7 49.2,34.2 47.5,34.2 		"/>
		<polygon id="XMLID_138_" class="st4" points="51.9,33.7 51.9,34.2 50.1,34.2 50.1,31.9 51.9,31.9 51.9,32.4 50.8,32.4 50.8,32.8 
			51.8,32.8 51.8,33.3 50.8,33.3 50.8,33.7 		"/>
		<g id="XMLID_213_">
			<path id="XMLID_137_" class="st4" d="M53,34.1c-0.1-0.1-0.2-0.1-0.3-0.2l0.4-0.4c0.1,0.2,0.3,0.2,0.4,0.2c0.1,0,0.2,0,0.2-0.1
				c0-0.1,0.1-0.1,0.1-0.2v-1h-0.8v-0.5h1.4v1.4c0,0.3-0.1,0.5-0.2,0.7c-0.1,0.1-0.4,0.2-0.7,0.2C53.3,34.2,53.1,34.2,53,34.1"/>
		</g>
		<path id="XMLID_210_" class="st4" d="M56.7,33.3l-0.3-0.7l-0.3,0.7H56.7z M56.9,33.7h-1l-0.2,0.4h-0.7l1-2.3h0.6l1,2.3h-0.7
			L56.9,33.7z"/>
		<polygon id="XMLID_133_" class="st4" points="60.7,31.9 60.7,34.2 60.2,34.2 59.2,33 59.2,34.2 58.6,34.2 58.6,31.9 59.1,31.9 
			60.1,33.1 60.1,31.9 		"/>
		<g id="XMLID_197_">
			<path id="XMLID_206_" class="st4" d="M62.9,33.7c0.2,0,0.4-0.1,0.5-0.2c0.1-0.1,0.2-0.3,0.2-0.5c0-0.2-0.1-0.3-0.2-0.5
				c-0.1-0.1-0.3-0.2-0.5-0.2h-0.4v1.2H62.9z M61.8,31.9h1.1c0.2,0,0.5,0,0.7,0.1c0.2,0.1,0.3,0.2,0.4,0.4c0.1,0.2,0.2,0.4,0.2,0.6
				c0,0.2-0.1,0.4-0.2,0.6c-0.1,0.2-0.3,0.3-0.4,0.4c-0.2,0.1-0.4,0.1-0.7,0.1h-1.1V31.9z"/>
			<path id="XMLID_203_" class="st4" d="M66.4,32.5c-0.1-0.1-0.2-0.1-0.3-0.1h-0.4v0.7h0.4c0.1,0,0.2,0,0.3-0.1
				c0.1-0.1,0.1-0.1,0.1-0.2C66.5,32.6,66.5,32.6,66.4,32.5 M66.1,33.6h-0.4v0.6h-0.6v-2.3h1c0.2,0,0.4,0,0.5,0.1
				c0.2,0.1,0.3,0.2,0.4,0.3c0.1,0.1,0.1,0.3,0.1,0.4c0,0.2,0,0.3-0.1,0.4c-0.1,0.1-0.2,0.2-0.3,0.3l0.5,0.7h-0.7L66.1,33.6z"/>
			<path id="XMLID_200_" class="st4" d="M69.7,33.6c0.1-0.1,0.2-0.1,0.2-0.2c0.1-0.1,0.1-0.2,0.1-0.3s0-0.2-0.1-0.3
				c-0.1-0.1-0.1-0.2-0.2-0.2c-0.1-0.1-0.2-0.1-0.3-0.1c-0.1,0-0.2,0-0.3,0.1c-0.1,0.1-0.2,0.1-0.2,0.2c-0.1,0.1-0.1,0.2-0.1,0.3
				s0,0.2,0.1,0.3c0.1,0.1,0.1,0.2,0.2,0.2c0.1,0.1,0.2,0.1,0.3,0.1C69.5,33.7,69.6,33.7,69.7,33.6 M68.7,34.1
				c-0.2-0.1-0.3-0.2-0.5-0.4c-0.1-0.2-0.2-0.4-0.2-0.6s0.1-0.4,0.2-0.6c0.1-0.2,0.3-0.3,0.5-0.4c0.2-0.1,0.4-0.2,0.6-0.2
				c0.2,0,0.5,0.1,0.6,0.2c0.2,0.1,0.3,0.2,0.5,0.4c0.1,0.2,0.2,0.4,0.2,0.6s-0.1,0.4-0.2,0.6c-0.1,0.2-0.3,0.3-0.5,0.4
				c-0.2,0.1-0.4,0.2-0.6,0.2C69.1,34.2,68.9,34.2,68.7,34.1"/>
			<path id="XMLID_126_" class="st4" d="M74.7,33h0.6v0.9c-0.1,0.1-0.3,0.2-0.4,0.2s-0.3,0.1-0.5,0.1c-0.2,0-0.5,0-0.6-0.1
				c-0.2-0.1-0.3-0.2-0.4-0.4c-0.1-0.2-0.2-0.4-0.2-0.6c0-0.2,0.1-0.4,0.2-0.6c0.1-0.2,0.3-0.3,0.5-0.4c0.2-0.1,0.4-0.2,0.7-0.2
				c0.2,0,0.4,0,0.6,0.1c0.2,0.1,0.3,0.2,0.4,0.3l-0.4,0.4c-0.2-0.2-0.3-0.3-0.6-0.3c-0.2,0-0.4,0.1-0.5,0.2
				c-0.1,0.1-0.2,0.3-0.2,0.5c0,0.1,0,0.2,0.1,0.3c0.1,0.1,0.1,0.2,0.2,0.2c0.1,0.1,0.2,0.1,0.3,0.1c0.1,0,0.2,0,0.3-0.1V33z"/>
		</g>
		<rect id="XMLID_124_" x="76.3" y="31.9" class="st4" width="0.6" height="2.3"/>
		<path id="XMLID_193_" class="st4" d="M79.4,33.3l-0.3-0.7l-0.3,0.7H79.4z M79.6,33.7h-1l-0.2,0.4h-0.7l1-2.3h0.6l1,2.3h-0.7
			L79.6,33.7z"/>
		<polygon id="XMLID_121_" class="st4" points="83.3,34.2 83.3,33 82.7,34 82.5,34 81.9,33 81.9,34.2 81.3,34.2 81.3,31.9 
			81.8,31.9 82.6,33.2 83.4,31.9 83.9,31.9 83.9,34.2 		"/>
		<polygon id="XMLID_120_" class="st4" points="87.1,34.2 87.1,33 86.5,34 86.2,34 85.6,33 85.6,34.2 85,34.2 85,31.9 85.6,31.9 
			86.4,33.2 87.1,31.9 87.7,31.9 87.7,34.2 		"/>
		<path id="XMLID_188_" class="st4" d="M90.1,33.3l-0.3-0.7l-0.3,0.7H90.1z M90.3,33.7h-1l-0.2,0.4h-0.7l1-2.3h0.6l1,2.3h-0.7
			L90.3,33.7z"/>
		<polygon id="XMLID_117_" class="st4" points="92.3,32.4 91.6,32.4 91.6,31.9 93.7,31.9 93.7,32.4 93,32.4 93,34.2 92.3,34.2 		"/>
		<polygon id="XMLID_116_" class="st4" points="95.1,32.4 94.4,32.4 94.4,31.9 96.4,31.9 96.4,32.4 95.7,32.4 95.7,34.2 95.1,34.2 
					"/>
		<polygon id="XMLID_115_" class="st4" points="99.1,33.7 99.1,34.2 97.3,34.2 97.3,31.9 99.1,31.9 99.1,32.4 97.9,32.4 97.9,32.8 
			99,32.8 99,33.3 97.9,33.3 97.9,33.7 		"/>
		<rect id="XMLID_114_" x="100.1" y="31.9" class="st4" width="0.6" height="2.3"/>
	</g>
</g>
</svg>
